<?xml version="1.0" encoding="UTF-8"?> <svg xmlns="http://www.w3.org/2000/svg" xmlns:xlink="http://www.w3.org/1999/xlink" xmlns:svgjs="http://svgjs.com/svgjs" version="1.1" width="512" height="512" x="0" y="0" viewBox="0 0 512 512" style="enable-background:new 0 0 512 512" xml:space="preserve" class=""><g><path xmlns="http://www.w3.org/2000/svg" d="m467 161h-35.644531c-7.636719-90.050781-83.363281-161-175.355469-161s-167.71875 70.949219-175.355469 161h-35.644531c-24.8125 0-45 20.1875-45 45v120c0 24.8125 20.1875 45 45 45h65v-195c0-80.503906 65.496094-146 146-146s146 65.496094 146 146v160c0 67.160156-50.804688 122.667969-116 130.136719v-14.136719h-130v60h130v-15.691406c37.367188-3.425782 72.035156-19.605469 98.867188-46.441406 21.976562-21.972657 36.808593-49.203126 43.339843-78.867188h38.792969c24.8125 0 45-20.1875 45-45v-120c0-24.8125-20.1875-45-45-45zm-387 180h-35c-8.269531 0-15-6.730469-15-15v-120c0-8.269531 6.730469-15 15-15h35zm402-15c0 8.269531-6.730469 15-15 15h-35v-150h35c8.269531 0 15 6.730469 15 15zm0 0" fill="#999999" data-original="#000000" style="" class=""></path></g></svg> 